<?xml version="1.0" encoding="iso-8859-1"?>
<!-- Generator: Adobe Illustrator 19.0.0, SVG Export Plug-In . SVG Version: 6.00 Build 0)  -->
<svg version="1.1" id="Layer_1" xmlns="http://www.w3.org/2000/svg" xmlns:xlink="http://www.w3.org/1999/xlink" x="0px" y="0px"
	 viewBox="0 0 511.999 511.999" style="enable-background:new 0 0 511.999 511.999;" xml:space="preserve">
<path style="fill:#37A9BF;" d="M490.997,66.482L7.318,289.006c-10.784,4.961-9.313,20.729,2.202,23.611l102.68,25.698
	l59.779,109.252c3.911,7.146,13.482,8.743,19.499,3.25l60.95-57.958l160.842,50.7c6.991,2.203,14.377-2.018,16.025-9.16
	l81.263-351.992C513.185,71.033,501.601,61.603,490.997,66.482z"/>
<g>
	<path style="fill:#52DDDC;" d="M289.219,159.313L7.318,289.006c-10.784,4.961-9.313,20.729,2.202,23.611l102.68,25.698
		l59.779,109.252c3.911,7.146,13.482,8.743,19.499,3.25l60.95-57.958l36.791,11.598V159.313z"/>
	<path style="fill:#52DDDC;" d="M510.531,57.894c0.508-0.013,1.002,0.063,1.468,0.216C511.534,57.957,511.039,57.881,510.531,57.894
		z"/>
</g>
<path style="fill:#2C447F;" d="M495.973,79.19c2.209-2.284-0.775-5.799-3.387-3.992L112.2,338.315l0,0l59.779,109.252
	c1.828,3.339,4.892,5.452,8.252,6.207l28.622-77.521L495.973,79.19z"/>
<path style="fill:#2D6CA3;" d="M289.219,215.868L112.2,338.315l0,0l59.779,109.252c1.828,3.339,4.892,5.452,8.252,6.207
	l28.622-77.521l80.364-83.147v-77.237H289.219z"/>
<g>
</g>
<g>
</g>
<g>
</g>
<g>
</g>
<g>
</g>
<g>
</g>
<g>
</g>
<g>
</g>
<g>
</g>
<g>
</g>
<g>
</g>
<g>
</g>
<g>
</g>
<g>
</g>
<g>
</g>
</svg>
